<svg xmlns="http://www.w3.org/2000/svg" viewBox="0 0 50 50" enable-background="new 0 0 50 50" width="500" height="500" style="fill: rgb(255, 255, 255);">
    <path style="text-indent:0;text-align:start;line-height:normal;text-transform:none;block-progression:tb;-inkscape-font-specification:Bitstream Vera Sans" d="M 9.84375 0 A 1.0001 1.0001 0 0 0 9.25 0.34375 C 9.25 0.34375 8.2231946 1.5424391 7.1875 3.03125 C 6.1518054 4.5200609 5 6.1765399 5 7.90625 C 5 10.514187 6.961432 12.746143 9.5 13 A 1.0001 1.0001 0 0 0 9.59375 13 L 10.40625 13 A 1.0001 1.0001 0 0 0 10.5 13 C 13.038568 12.746143 15 10.514187 15 7.90625 C 15 6.1765399 13.848195 4.5200609 12.8125 3.03125 C 11.776805 1.5424391 10.75 0.34375 10.75 0.34375 A 1.0001 1.0001 0 0 0 9.84375 0 z M 24.84375 0 A 1.0001 1.0001 0 0 0 24.25 0.34375 C 24.25 0.34375 23.223195 1.5424391 22.1875 3.03125 C 21.151805 4.5200609 20 6.1765399 20 7.90625 C 20 10.514187 21.961432 12.746143 24.5 13 A 1.0001 1.0001 0 0 0 24.59375 13 L 25.40625 13 A 1.0001 1.0001 0 0 0 25.5 13 C 28.038568 12.746143 30 10.514187 30 7.90625 C 30 6.1765399 28.848195 4.5200609 27.8125 3.03125 C 26.776805 1.5424391 25.75 0.34375 25.75 0.34375 A 1.0001 1.0001 0 0 0 24.84375 0 z M 39.84375 0 A 1.0001 1.0001 0 0 0 39.25 0.34375 C 39.25 0.34375 38.223195 1.5424391 37.1875 3.03125 C 36.151805 4.5200609 35 6.1765399 35 7.90625 C 35 10.514187 36.961432 12.746143 39.5 13 A 1.0001 1.0001 0 0 0 39.59375 13 L 40.40625 13 A 1.0001 1.0001 0 0 0 40.5 13 C 43.038568 12.746143 45 10.514187 45 7.90625 C 45 6.1765399 43.848195 4.5200609 42.8125 3.03125 C 41.776805 1.5424391 40.75 0.34375 40.75 0.34375 A 1.0001 1.0001 0 0 0 39.84375 0 z M 10 2.625 C 10.370517 3.0769841 10.596717 3.3069995 11.1875 4.15625 C 12.151805 5.5424391 13 7.3359601 13 7.90625 C 13 9.2366044 12.134167 10.380098 11 10.8125 L 11 8 A 1.0001 1.0001 0 0 0 9.90625 6.96875 A 1.0001 1.0001 0 0 0 9.78125 7 A 1.0001 1.0001 0 0 0 9 8 L 9 10.8125 C 7.8658334 10.380098 7 9.2366044 7 7.90625 C 7 7.3359601 7.8481946 5.5424391 8.8125 4.15625 C 9.403283 3.3069995 9.6294826 3.0769841 10 2.625 z M 25 2.625 C 25.370517 3.0769841 25.596717 3.3069995 26.1875 4.15625 C 27.151805 5.5424391 28 7.3359601 28 7.90625 C 28 9.2366044 27.134167 10.380098 26 10.8125 L 26 8 A 1.0001 1.0001 0 0 0 24.90625 6.96875 A 1.0001 1.0001 0 0 0 24.78125 7 A 1.0001 1.0001 0 0 0 24 8 L 24 10.8125 C 22.865833 10.380098 22 9.2366044 22 7.90625 C 22 7.3359601 22.848195 5.5424391 23.8125 4.15625 C 24.403283 3.3069995 24.629483 3.0769841 25 2.625 z M 40 2.625 C 40.370517 3.0769841 40.596717 3.3069995 41.1875 4.15625 C 42.151805 5.5424391 43 7.3359601 43 7.90625 C 43 9.2366044 42.134167 10.380098 41 10.8125 L 41 8 A 1.0001 1.0001 0 0 0 39.90625 6.96875 A 1.0001 1.0001 0 0 0 39.78125 7 A 1.0001 1.0001 0 0 0 39 8 L 39 10.8125 C 37.865833 10.380098 37 9.2366044 37 7.90625 C 37 7.3359601 37.848195 5.5424391 38.8125 4.15625 C 39.403283 3.3069995 39.629483 3.0769841 40 2.625 z M 5.875 13 C 4.8387873 13.093487 4 13.988888 4 15 C 4 15.65119 4.2321829 15.911679 4.4375 16.28125 C 4.6428171 16.650821 4.8883628 17.042803 5.125 17.46875 C 5.5982744 18.320644 6 19.26746 6 20 L 6 28.25 C 3.1550029 29.002949 1 31.462659 1 34.5 L 1 38.09375 A 1.0001 1.0001 0 0 0 1 38.875 L 1 48 A 1.0001 1.0001 0 0 0 0.90625 48 A 1.001098 1.001098 0 0 0 0.8125 48 A 1.0043849 1.0043849 0 0 0 1 50 L 49 50 A 1.0001 1.0001 0 1 0 49 48 L 49 38.84375 A 1.0001 1.0001 0 0 0 49 38.25 L 49 34.5 C 49 31.527287 46.856239 29.017378 44 28.25 L 44 19.5 C 44 19.10641 44.172144 18.647873 44.40625 18.15625 C 44.640356 17.664627 45 17.23244 45 16.40625 C 45 15.913393 44.913614 15.323434 44.5 14.8125 C 44.086386 14.301566 43.355871 14 42.59375 14 C 39.815972 14 36.46875 13.03125 36.46875 13.03125 A 1.0001 1.0001 0 0 0 36.34375 13 C 36.190253 12.978072 36.02303 12.986645 35.875 13 C 34.838787 13.093487 34 13.988888 34 15 C 34 15.65119 34.232183 15.911679 34.4375 16.28125 C 34.642817 16.650821 34.888363 17.042803 35.125 17.46875 C 35.598274 18.320644 36 19.26746 36 20 L 36 28 L 29 28 L 29 19.5 C 29 19.10641 29.172144 18.647873 29.40625 18.15625 C 29.640356 17.664627 30 17.23244 30 16.40625 C 30 15.913393 29.913614 15.323434 29.5 14.8125 C 29.086386 14.301566 28.355871 14 27.59375 14 C 24.815972 14 21.46875 13.03125 21.46875 13.03125 A 1.0001 1.0001 0 0 0 21.34375 13 C 21.190253 12.978072 21.02303 12.986645 20.875 13 C 19.838787 13.093487 19 13.988888 19 15 C 19 15.65119 19.232183 15.911679 19.4375 16.28125 C 19.642817 16.650821 19.888363 17.042803 20.125 17.46875 C 20.598274 18.320644 21 19.26746 21 20 L 21 28 L 14 28 L 14 19.5 C 14 19.10641 14.172144 18.647873 14.40625 18.15625 C 14.640356 17.664627 15 17.23244 15 16.40625 C 15 15.913393 14.913614 15.323434 14.5 14.8125 C 14.086386 14.301566 13.355871 14 12.59375 14 C 9.8159722 14 6.46875 13.03125 6.46875 13.03125 A 1.0001 1.0001 0 0 0 6.34375 13 C 6.1902534 12.978072 6.0230304 12.986645 5.875 13 z M 6.0625 15 C 6.2978904 15.06959 9.4874558 16 12.59375 16 C 12.931629 16 12.926114 16.04843 12.9375 16.0625 C 12.94889 16.07657 13 16.199107 13 16.40625 C 13 16.28006 12.859644 16.722873 12.59375 17.28125 C 12.327856 17.839627 12 18.59359 12 19.5 L 12 28 L 8 28 L 8 20 C 8 18.63254 7.4017256 17.448106 6.875 16.5 C 6.6116372 16.025947 6.3571829 15.586679 6.1875 15.28125 C 6.1232414 15.165585 6.0904799 15.077656 6.0625 15 z M 21.0625 15 C 21.29789 15.06959 24.487456 16 27.59375 16 C 27.931629 16 27.926114 16.04843 27.9375 16.0625 C 27.94889 16.07657 28 16.199107 28 16.40625 C 28 16.28006 27.859644 16.722873 27.59375 17.28125 C 27.327856 17.839627 27 18.59359 27 19.5 L 27 28 L 23 28 L 23 20 C 23 18.63254 22.401726 17.448106 21.875 16.5 C 21.611637 16.025947 21.357183 15.586679 21.1875 15.28125 C 21.123241 15.165585 21.09048 15.077656 21.0625 15 z M 36.0625 15 C 36.29789 15.06959 39.487456 16 42.59375 16 C 42.931629 16 42.926114 16.04843 42.9375 16.0625 C 42.94889 16.07657 43 16.199107 43 16.40625 C 43 16.28006 42.859644 16.722873 42.59375 17.28125 C 42.327856 17.839627 42 18.59359 42 19.5 L 42 28 L 38 28 L 38 20 C 38 18.63254 37.401726 17.448106 36.875 16.5 C 36.611637 16.025947 36.357183 15.586679 36.1875 15.28125 C 36.123241 15.165585 36.09048 15.077656 36.0625 15 z M 7.8125 30 L 42.1875 30 C 44.866667 30 47 32.077778 47 34.5 L 47 38.15625 C 46.475203 38.632665 45.746165 39 45 39 C 43.345455 39 42 37.654545 42 36 A 1.0001 1.0001 0 0 0 42 35.90625 A 1.0001 1.0001 0 0 0 41.96875 35.71875 A 1.0001 1.0001 0 0 0 41.9375 35.59375 A 1.0001 1.0001 0 0 0 41.84375 35.4375 A 1.0001 1.0001 0 0 0 41.1875 35 A 1.0001 1.0001 0 0 0 40.78125 35 A 1.0001 1.0001 0 0 0 40.28125 35.28125 A 1.0001 1.0001 0 0 0 40.21875 35.375 A 1.0001 1.0001 0 0 0 40.15625 35.4375 A 1.0001 1.0001 0 0 0 40.15625 35.46875 A 1.0001 1.0001 0 0 0 40.09375 35.53125 A 1.0001 1.0001 0 0 0 40.0625 35.625 A 1.0001 1.0001 0 0 0 40 35.8125 A 1.0001 1.0001 0 0 0 40 35.9375 A 1.0001 1.0001 0 0 0 40 36 C 40 37.654545 38.654545 39 37 39 C 35.345455 39 34 37.654545 34 36 A 1.0001 1.0001 0 0 0 34 35.90625 A 1.0001 1.0001 0 0 0 33.96875 35.71875 A 1.0001 1.0001 0 0 0 33.9375 35.59375 A 1.0001 1.0001 0 0 0 33.875 35.53125 A 1.0001 1.0001 0 0 0 33.84375 35.4375 A 1.0001 1.0001 0 0 0 33.625 35.21875 A 1.0001 1.0001 0 0 0 33.46875 35.09375 A 1.0001 1.0001 0 0 0 33.375 35.0625 A 1.0001 1.0001 0 0 0 33.1875 35 A 1.0001 1.0001 0 0 0 32.78125 35 A 1.0001 1.0001 0 0 0 32.28125 35.28125 A 1.0001 1.0001 0 0 0 32.28125 35.3125 A 1.0001 1.0001 0 0 0 32.15625 35.4375 A 1.0001 1.0001 0 0 0 32.15625 35.46875 A 1.0001 1.0001 0 0 0 32.09375 35.53125 A 1.0001 1.0001 0 0 0 32.03125 35.71875 A 1.0001 1.0001 0 0 0 32 35.8125 A 1.0001 1.0001 0 0 0 32 35.84375 A 1.0001 1.0001 0 0 0 32 36 C 32 37.654545 30.654545 39 29 39 C 27.345455 39 26 37.654545 26 36 A 1.0001 1.0001 0 0 0 26 35.90625 A 1.0001 1.0001 0 0 0 25.96875 35.71875 A 1.0001 1.0001 0 0 0 25.9375 35.59375 A 1.0001 1.0001 0 0 0 25.84375 35.4375 A 1.0001 1.0001 0 0 0 25.1875 35 A 1.0001 1.0001 0 0 0 24.78125 35 A 1.0001 1.0001 0 0 0 24.59375 35.0625 A 1.0001 1.0001 0 0 0 24.4375 35.15625 A 1.0001 1.0001 0 0 0 24.28125 35.28125 A 1.0001 1.0001 0 0 0 24.21875 35.375 A 1.0001 1.0001 0 0 0 24.15625 35.4375 A 1.0001 1.0001 0 0 0 24.15625 35.46875 A 1.0001 1.0001 0 0 0 24 35.8125 A 1.0001 1.0001 0 0 0 24 35.9375 A 1.0001 1.0001 0 0 0 24 36 C 24 37.654545 22.654545 39 21 39 C 19.345455 39 18 37.654545 18 36 A 1.0001 1.0001 0 0 0 18 35.90625 A 1.0001 1.0001 0 0 0 17.96875 35.71875 A 1.0001 1.0001 0 0 0 17.9375 35.59375 A 1.0001 1.0001 0 0 0 17.84375 35.4375 A 1.0001 1.0001 0 0 0 17.1875 35 A 1.0001 1.0001 0 0 0 16.78125 35 A 1.0001 1.0001 0 0 0 16.28125 35.28125 A 1.0001 1.0001 0 0 0 16.21875 35.375 A 1.0001 1.0001 0 0 0 16.15625 35.4375 A 1.0001 1.0001 0 0 0 16.15625 35.46875 A 1.0001 1.0001 0 0 0 16.09375 35.53125 A 1.0001 1.0001 0 0 0 16.0625 35.625 A 1.0001 1.0001 0 0 0 16 35.8125 A 1.0001 1.0001 0 0 0 16 35.9375 A 1.0001 1.0001 0 0 0 16 36 C 16 37.654545 14.654545 39 13 39 C 11.345455 39 10 37.654545 10 36 A 1.0001 1.0001 0 0 0 10 35.90625 A 1.0001 1.0001 0 0 0 10 35.8125 A 1.0001 1.0001 0 0 0 9.9375 35.59375 A 1.0001 1.0001 0 0 0 9.875 35.53125 A 1.0001 1.0001 0 0 0 9.78125 35.34375 A 1.0001 1.0001 0 0 0 9.71875 35.28125 A 1.0001 1.0001 0 0 0 9.625 35.21875 A 1.0001 1.0001 0 0 0 8.90625 34.96875 A 1.0001 1.0001 0 0 0 8.78125 35 A 1.0001 1.0001 0 0 0 8 36 C 8 37.654545 6.6545455 39 5 39 C 4.1930556 39 3.4993128 38.716852 3 38.21875 L 3 34.5 C 3 31.95914 5.1125 30 7.8125 30 z M 9 38.96875 C 9.9148198 40.189216 11.369886 41 13 41 C 14.630114 41 16.08518 40.189216 17 38.96875 C 17.91482 40.189216 19.369886 41 21 41 C 22.630114 41 24.08518 40.189216 25 38.96875 C 25.91482 40.189216 27.369886 41 29 41 C 30.630114 41 32.08518 40.189216 33 38.96875 C 33.91482 40.189216 35.369886 41 37 41 C 38.630114 41 40.08518 40.189216 41 38.96875 C 41.91482 40.189216 43.369886 41 45 41 C 45.71765 41 46.394999 40.839266 47 40.5625 L 47 48 L 3 48 L 3 40.5625 C 3.6247933 40.83689 4.2944217 41 5 41 C 6.6301136 41 8.0851801 40.189216 9 38.96875 z"/>
</svg>